<?xml version="1.0" encoding="UTF-8" standalone="no"?>
<!-- Created with Inkscape (http://www.inkscape.org/) -->

<svg
   xmlns:dc="http://purl.org/dc/elements/1.1/"
   xmlns:cc="http://creativecommons.org/ns#"
   xmlns:rdf="http://www.w3.org/1999/02/22-rdf-syntax-ns#"
   xmlns:svg="http://www.w3.org/2000/svg"
   xmlns="http://www.w3.org/2000/svg"
   xmlns:xlink="http://www.w3.org/1999/xlink"
   xmlns:sodipodi="http://sodipodi.sourceforge.net/DTD/sodipodi-0.dtd"
   xmlns:inkscape="http://www.inkscape.org/namespaces/inkscape"
   width="80"
   height="80"
   id="svg2"
   version="1.1"
   inkscape:version="0.48.5 r10040"
   sodipodi:docname="button-settings.80x80.svg">
  <sodipodi:namedview
     id="base"
     pagecolor="#ffffff"
     bordercolor="#666666"
     borderopacity="1.0"
     inkscape:pageopacity="0.0"
     inkscape:pageshadow="2"
     inkscape:zoom="2.8"
     inkscape:cx="26.768465"
     inkscape:cy="87.077028"
     inkscape:document-units="px"
     inkscape:current-layer="layer1"
     showgrid="false"
     inkscape:window-width="1440"
     inkscape:window-height="809"
     inkscape:window-x="0"
     inkscape:window-y="0"
     inkscape:window-maximized="1" />
  <defs
     id="defs4">
    <linearGradient
       id="linearGradient3803">
      <stop
         id="stop3805"
         offset="0"
         style="stop-color:#e5e5e5;stop-opacity:1;" />
      <stop
         id="stop3807"
         offset="1"
         style="stop-color:#ffffff;stop-opacity:1;" />
    </linearGradient>
    <linearGradient
       id="linearGradient3826">
      <stop
         id="stop3828"
         offset="0"
         style="stop-color:#fff902;stop-opacity:1;" />
      <stop
         id="stop3830"
         offset="1"
         style="stop-color:#fcff8e;stop-opacity:0.93162394;" />
    </linearGradient>
    <linearGradient
       id="linearGradient3806">
      <stop
         id="stop3808"
         offset="0"
         style="stop-color:#ee1010;stop-opacity:1;" />
      <stop
         id="stop3810"
         offset="1"
         style="stop-color:#8f0a0a;stop-opacity:1;" />
    </linearGradient>
    <linearGradient
       id="linearGradient3782"
       inkscape:collect="always">
      <stop
         id="stop3784"
         offset="0"
         style="stop-color:#000000;stop-opacity:1;" />
      <stop
         id="stop3786"
         offset="1"
         style="stop-color:#000000;stop-opacity:0;" />
    </linearGradient>
    <linearGradient
       id="linearGradient3774">
      <stop
         id="stop3776"
         offset="0"
         style="stop-color:#979d00;stop-opacity:1;" />
      <stop
         id="stop3778"
         offset="1"
         style="stop-color:#065e0f;stop-opacity:1;" />
    </linearGradient>
    <linearGradient
       gradientUnits="userSpaceOnUse"
       y2="950.08423"
       x2="276.52417"
       y1="980.64136"
       x1="237.1384"
       id="linearGradient3780"
       xlink:href="#linearGradient3774"
       inkscape:collect="always" />
    <linearGradient
       gradientUnits="userSpaceOnUse"
       y2="950.84186"
       x2="236.11807"
       y1="977.6109"
       x1="264.15997"
       id="linearGradient3788"
       xlink:href="#linearGradient3782"
       inkscape:collect="always" />
    <linearGradient
       gradientTransform="translate(147.14286,2.1428571)"
       y2="950.08423"
       x2="276.52417"
       y1="980.64136"
       x1="237.1384"
       gradientUnits="userSpaceOnUse"
       id="linearGradient3800"
       xlink:href="#linearGradient3774"
       inkscape:collect="always" />
    <linearGradient
       gradientTransform="translate(147.14286,2.1428571)"
       y2="950.84186"
       x2="236.11807"
       y1="977.6109"
       x1="264.15997"
       gradientUnits="userSpaceOnUse"
       id="linearGradient3802"
       xlink:href="#linearGradient3782"
       inkscape:collect="always" />
    <linearGradient
       gradientTransform="translate(0,-3.9285714)"
       gradientUnits="userSpaceOnUse"
       y2="953.79077"
       x2="391.57141"
       y1="992.7193"
       x1="422.35715"
       id="linearGradient3812"
       xlink:href="#linearGradient3806"
       inkscape:collect="always" />
    <linearGradient
       y2="953.79077"
       x2="391.57141"
       y1="992.7193"
       x1="422.35715"
       gradientTransform="matrix(-1,0,0,1,971.90584,-3.2142857)"
       gradientUnits="userSpaceOnUse"
       id="linearGradient3820"
       xlink:href="#linearGradient3806"
       inkscape:collect="always" />
    <radialGradient
       gradientUnits="userSpaceOnUse"
       gradientTransform="matrix(1,0,0,1.0089045,0,-8.5824234)"
       r="27.590528"
       fy="963.8288"
       fx="542.3252"
       cy="963.8288"
       cx="542.3252"
       id="radialGradient3832"
       xlink:href="#linearGradient3826"
       inkscape:collect="always" />
    <linearGradient
       y2="953.79077"
       x2="391.57141"
       y1="992.7193"
       x1="422.35715"
       gradientTransform="matrix(0.69719176,0,0,0.68865921,120.57563,154.27148)"
       gradientUnits="userSpaceOnUse"
       id="linearGradient3840"
       xlink:href="#linearGradient3806"
       inkscape:collect="always" />
    <linearGradient
       gradientUnits="userSpaceOnUse"
       y2="744.06519"
       x2="279.70819"
       y1="768.30884"
       x1="294.71201"
       id="linearGradient3809"
       xlink:href="#linearGradient3803"
       inkscape:collect="always" />
    <linearGradient
       gradientTransform="translate(69.953064,0.75761441)"
       y2="744.06519"
       x2="279.70819"
       y1="768.30884"
       x1="294.71201"
       gradientUnits="userSpaceOnUse"
       id="linearGradient3821"
       xlink:href="#linearGradient3803"
       inkscape:collect="always" />
  </defs>
  <metadata
     id="metadata7">
    <rdf:RDF>
      <cc:Work
         rdf:about="">
        <dc:format>image/svg+xml</dc:format>
        <dc:type
           rdf:resource="http://purl.org/dc/dcmitype/StillImage" />
        <dc:title />
      </cc:Work>
    </rdf:RDF>
  </metadata>
  <g
     id="layer1"
     inkscape:groupmode="layer"
     inkscape:label="Layer 1"
     transform="translate(0,-972.36218)">
    <path
       style="fill:#d3d3d3;fill-opacity:1;stroke:#646464;stroke-width:1.70473409;stroke-opacity:1"
       d="m 38.490179,978.21456 -2.312916,5.07796 -0.192743,1.83192 0.481857,3.08534 -5.46105,1.44625 -1.156458,-2.8925 -1.060087,-1.47839 -4.561584,-3.27818 -2.602031,1.54267 0.546106,5.56004 0.738848,1.67122 1.92743,2.44257 -3.983355,3.98523 -2.441412,-1.92834 -1.670439,-0.77133 -5.557422,-0.54637 -1.5098197,2.63539 3.2445057,4.53156 1.477696,1.0606 2.923269,1.157 -1.477696,5.4637 -3.083888,-0.45 -1.798934,0.1607 -5.1076893,2.314 0,3.0532 5.1076893,2.314 1.798934,0.1607 3.083888,-0.45 1.477696,5.4637 -2.923269,1.157 -1.477696,1.0284 -3.2445057,4.5637 1.5098197,2.6354 5.557422,-0.5463 1.670439,-0.7714 2.441412,-1.9282 3.983355,3.9851 -1.92743,2.4426 -0.738848,1.6713 -0.546106,5.56 2.602031,1.5427 4.561584,-3.2782 1.060087,-1.4784 1.156458,-2.8926 5.46105,1.4464 -0.481857,3.0853 0.192743,1.8319 2.312916,5.0779 3.01964,0 2.312916,-5.0779 0.160619,-1.8319 -0.449733,-3.0853 5.461051,-1.4464 1.156458,2.8926 1.060087,1.4784 4.561584,3.2782 2.60203,-1.5427 -0.546106,-5.56 -0.738848,-1.6713 -1.959553,-2.4426 4.015478,-3.9851 2.441412,1.9282 1.638315,0.7714 5.589547,0.5463 1.50982,-2.6354 -3.276631,-4.5637 -1.477696,-1.0284 -2.891145,-1.157 1.477696,-5.4637 3.083888,0.45 1.798935,-0.1607 5.10769,-2.314 0,-3.0532 -5.10769,-2.314 -1.798935,-0.1607 -3.083888,0.45 -1.477696,-5.4637 2.891145,-1.157 1.477696,-1.0606 3.276631,-4.53156 -1.50982,-2.63539 -5.589547,0.54637 -1.638315,0.77133 -2.441412,1.92834 -4.015478,-3.98523 1.959553,-2.44257 0.738848,-1.67122 0.546106,-5.56004 -2.60203,-1.54267 -4.561584,3.27818 -1.060087,1.47839 -1.156458,2.8925 -5.461051,-1.44625 0.449733,-3.08534 -0.160619,-1.83192 -2.312916,-5.07796 -3.01964,0 z m 1.50982,21.276 c 7.096962,0 12.849533,5.75534 12.849533,12.85564 0,7.1002 -5.752571,12.8877 -12.849533,12.8877 -7.096961,0 -12.849532,-5.7875 -12.849532,-12.8877 0,-7.1003 5.752571,-12.85564 12.849532,-12.85564 z"
       id="path9890"
       inkscape:connector-curvature="0"
       inkscape:export-filename="/Users/Darkyen/IntelliJProjects/ImageRow/resources/SceneResources/UISkin.pack/button-settings-sm.png"
       inkscape:export-xdpi="26.446281"
       inkscape:export-ydpi="26.446281" />
  </g>
</svg>
